<?xml version="1.0" encoding="utf-8"?>
<!-- Generator: Adobe Illustrator 26.0.1, SVG Export Plug-In . SVG Version: 6.00 Build 0)  -->
<svg version="1.1" id="Layer_1" xmlns="http://www.w3.org/2000/svg" xmlns:xlink="http://www.w3.org/1999/xlink" x="0px" y="0px"
	 viewBox="0 0 2500 2495" style="enable-background:new 0 0 2500 2495;" xml:space="preserve">
<style type="text/css">
	.st0{fill:#25F4EE;}
	.st1{fill:#FE2C55;}
	.st2{fill:#FFFFFF;}
</style>
<rect x="-0.7" y="1.3" width="2503.2" height="2493.5"/>
<g>
	<path class="st0" d="M1036.6,1061.9v-75.4c-26.2-4.1-52.6-6.4-79.1-6.8C701,979.2,474,1145.3,396.9,1389.9s13.9,510.9,224.4,657.4
		c-220.8-236.4-208.2-607,28.1-827.8C754.7,1121.2,892.6,1065.1,1036.6,1061.9L1036.6,1061.9z"/>
	<path class="st0" d="M1050.8,1915.8c143.4-0.2,261.2-113.1,267.5-256.4V381h233.5c-4.8-26.7-7-53.8-6.8-80.9h-319.4v1277.1
		c-5.3,144-123.5,258-267.5,258.3c-43-0.3-85.4-11-123.6-30.9C884.8,1874.1,965.1,1915.4,1050.8,1915.8L1050.8,1915.8z M1988,814.7
		v-71c-86,0-170-25.4-241.6-72.9C1809.1,743.7,1894,794.3,1988,814.7z"/>
</g>
<path class="st1" d="M1746.5,670.8c-70.5-80.3-109.4-183.5-109.3-290.4h-85.3C1574.1,499.9,1644.5,604.9,1746.5,670.8L1746.5,670.8z
	 M957.5,1299.2c-148.1,0.8-267.5,121.4-266.8,269.5c0.5,99.1,55.6,189.8,143.2,235.9C747.3,1685,774,1517.7,893.6,1431
	c45.7-33.1,100.7-50.9,157.2-50.8c26.8,0.3,53.5,4.5,79.1,12.4v-325c-26.1-3.9-52.6-6-79.1-6.2h-14.2v247.2
	C1010.8,1301.5,984.1,1298.4,957.5,1299.2L957.5,1299.2z"/>
<path class="st1" d="M1988,814.7v247.2c-159.1-0.3-314.1-50.7-443-144v649.3c-0.7,324-263.5,586.3-587.5,586.3
	c-120.3,0.2-237.8-36.9-336.1-106.3c220.5,237.1,591.5,250.7,828.7,30.2c119.3-110.9,187.1-266.4,187.1-429.3v-647.5
	c129.3,92.6,284.5,142.3,443.6,142.1V824.7C2049.5,824.5,2018.5,821.2,1988,814.7L1988,814.7z"/>
<path class="st2" d="M1545,1567.3V918c129.3,92.7,284.5,142.4,443.6,142.1V812.9c-94-19.9-179-69.7-242.2-142.1
	c-102-66-172.4-171-194.6-290.4h-233.5v1278.9c-6.1,148-130.9,263-278.9,257c-82-3.3-158-44.1-206.2-110.5
	c-131-69-181.3-231.1-112.3-362.2c46.1-87.7,136.9-142.7,235.9-143.2c26.8,0.3,53.5,4.4,79.1,12.3V1062
	c-323.4,5.5-581.2,275.9-575.7,599.3c2.5,146.5,59.7,286.7,160.5,393c99.3,67.1,216.9,101.8,336.7,99.5
	C1281.5,2153.7,1544.3,1891.3,1545,1567.3z"/>
</svg>
